<?xml version="1.0" encoding="utf-8"?>
<!-- Generator: Adobe Illustrator 19.0.0, SVG Export Plug-In . SVG Version: 6.00 Build 0)  -->
<svg version="1.1" id="Layer_1" xmlns="http://www.w3.org/2000/svg" xmlns:xlink="http://www.w3.org/1999/xlink" x="0px" y="0px"
	 viewBox="100.94 13.647 180.529 59.305" style="enable-background:new 100.94 13.647 180.529 59.305;" xml:space="preserve">
<style type="text/css">
	.st0{fill:#FEFEFE;}
	.st1{fill:#FF5352;}
</style>
<g id="Layer_x0020_1">
	<path class="st0" d="M175.235,38.938c0-0.344,0-1.099,0.344-1.787c0.344-0.344,1.099-0.756,1.443-0.756h20.683
		c0.756,0,1.443,0.344,1.443,0.756c0.344,0.756,0.756,1.443,0.756,1.787c0,0.756-0.344,1.443-0.756,2.199
		c-0.344,0.344-0.756,0.756-1.443,0.756h-6.872v26.799c0,0.344-0.344,1.099-1.099,1.443c-0.756,0-1.443,0.344-2.199,0.344
		s-1.787-0.344-2.199-0.344c-0.756-0.344-1.099-1.099-1.099-1.443V41.893h-7.215c-0.344,0-1.099-0.344-1.443-0.756
		C175.235,40.45,175.235,40.038,175.235,38.938z"/>
	<path id="_x31_" class="st0" d="M202.378,59.965V47.253c0-3.986,1.099-6.528,2.886-8.315c2.199-1.443,5.085-2.542,8.315-2.542
		c3.642,0,6.184,1.099,8.315,2.542c2.199,1.787,3.23,4.329,3.23,8.315v12.712c0,3.986-1.099,6.528-3.23,8.315
		c-2.199,1.443-4.741,2.542-8.315,2.542c-3.23,0-6.184-1.099-8.315-2.542C203.477,66.493,202.378,63.951,202.378,59.965z
		 M208.562,59.965c0,3.642,1.787,5.429,5.085,5.429c3.642,0,5.085-1.787,5.085-5.429V47.253c0-3.642-1.443-5.429-5.085-5.429
		c-3.23,0-5.085,1.787-5.085,5.429V59.965z"/>
	<path id="_x32_" class="st0" d="M230.62,68.692V38.251c0-0.344,0-0.756,0.344-1.099c0.344-0.344,1.099-0.756,1.443-0.756h9.758
		c7.627,0,11.613,3.23,11.613,9.758c0,2.542-0.756,4.741-1.787,6.184c-1.031,1.443-2.542,2.542-4.741,3.23l6.528,11.201
		c0,0,0.344,0.344,0.344,0.756c0,0.756-0.756,1.443-1.443,2.199c-0.687,0.756-1.787,1.099-2.542,1.099
		c-1.099,0-1.787-0.756-2.199-1.443l-6.872-13.056h-4.329v12.3c0,0.344-0.344,1.099-0.756,1.443c-0.756,0-1.443,0.344-2.199,0.344
		c-1.099,0-1.787-0.344-2.542-0.344C231.032,69.792,230.62,69.036,230.62,68.692z M236.804,51.651h5.429
		c3.642,0,5.085-1.443,5.085-4.741c0-3.642-1.443-5.085-5.085-5.085h-5.429V51.651z"/>
	<path id="_x33_" class="st0" d="M258.175,68.692V38.251c0-0.344,0.344-1.099,1.099-1.443c0.756,0,1.443-0.344,2.199-0.344
		c1.099,0,1.787,0.344,2.199,0.344c0.756,0.344,1.099,1.099,1.099,1.443v30.441c0,0.344-0.344,1.099-1.099,1.443
		c-0.344,0-1.099,0.344-2.199,0.344c-0.756,0-1.443-0.344-2.199-0.344C258.519,69.792,258.175,69.036,258.175,68.692z"/>
	<path class="st1" d="M272.33,36.052c0.344,0,0.756,0,0.756,0c0.344,0.344,0.344,0.344,0.344,0.756v0.344
		c-0.344,0-0.344,0.344-0.756,0.344c0,0.344,0,0.344-0.344,0.756c0,0.344,0,0.756,0,1.099s0,0.756,0.344,1.099
		c0,0.344,0.344,0.344,0.756,0.344c0.412,0,0.756,0,1.099,0c0-0.344,0.344-0.756,0.344-0.756c0.344-0.344,0.344-0.756,0.344-1.099
		c0.344-0.344,0.344-0.756,0.756-1.099c0-0.344,0.344-0.344,0.344-0.756c0.344-0.344,0.756-0.756,1.099-0.756
		c0.344,0,0.756-0.344,1.099-0.344c0.756,0,1.099,0.344,1.443,0.344c0.344,0.344,0.756,0.756,0.756,0.756
		c0.344,0.344,0.756,0.756,0.756,1.443c0,0.344,0,0.756,0,1.099s0,0.756,0,0.756c0,0.344,0,0.756,0,1.099
		c-0.344,0.344-0.344,0.344-0.344,0.756c-0.344,0-0.344,0.344-0.756,0.344c-0.344,0-0.344,0-0.756-0.344
		c-0.344,0-0.344-0.344-0.344-0.344c0-0.344,0-0.344,0.344-0.756c0-0.344,0.344-1.099,0.344-1.443s-0.344-0.756-0.344-1.099
		c-0.344-0.344-0.344-0.344-0.756-0.344c-0.412,0-0.756,0-0.756,0c-0.344,0.344-0.756,0.756-0.756,1.099s-0.344,0.756-0.344,1.099
		c-0.344,0.344-0.344,0.756-0.756,1.099c-0.344,0.344-0.756,0.756-1.099,0.756c-0.344,0.344-0.756,0.344-1.443,0.344
		c-1.099,0-1.787,0-2.199-0.756c-0.756-0.756-1.099-1.443-1.099-2.542s0.344-1.787,0.756-2.542
		C271.575,36.052,271.918,36.052,272.33,36.052z"/>
	<path id="_x31__1_" class="st1" d="M274.117,44.023h6.528c0.344,0,0.344,0,0.756,0.344c0,0,0,0.344,0,0.756v0.344
		c-0.344,0.344-0.344,0.344-0.756,0.344h-6.528c-1.099,0-1.787,0.756-1.787,1.787c0,0.756,0.756,1.443,1.787,1.443h6.528
		c0.344,0,0.344,0,0.756,0.344c0,0,0,0.344,0,0.756v0.344c-0.344,0.344-0.344,0.344-0.756,0.344h-6.528
		c-1.443,0-2.199-0.344-2.542-0.756c-0.756-0.756-1.099-1.787-1.099-2.542c0-1.099,0.344-2.199,1.099-2.542
		C271.918,44.436,272.674,44.023,274.117,44.023z"/>
	<path id="_x32__1_" class="st1" d="M272.33,51.994c0.344,0,0.756,0.344,0.756,0.344c0.344,0.344,0.344,0.344,0.344,0.756
		c0,0,0,0,0,0.344c-0.344,0-0.344,0.344-0.756,0.344c0,0.344,0,0.344-0.344,0.756c0,0.344,0,0.756,0,1.099s0,0.756,0.344,1.099
		c0,0.344,0.344,0.344,0.756,0.344c0.412,0,0.756,0,1.099-0.344l0.344-0.344c0.344-0.344,0.344-0.756,0.344-1.099
		c0.344-0.344,0.344-0.756,0.756-1.099c0-0.344,0.344-0.756,0.344-0.756c0.344-0.344,0.756-0.756,1.099-0.756
		c0.344-0.344,0.756-0.344,1.099-0.344c0.756,0,1.099,0,1.443,0.344c0.344,0.344,0.756,0.344,0.756,0.756
		c0.344,0.344,0.756,0.756,0.756,1.099c0,0.756,0,1.099,0,1.443s0,0.344,0,0.756s0,0.756,0,1.099
		c-0.344,0.344-0.344,0.344-0.344,0.756c-0.344,0-0.344,0.344-0.756,0.344c-0.344,0-0.344-0.344-0.756-0.344
		c-0.412,0-0.344-0.344-0.344-0.756c0,0,0,0,0.344-0.344c0-0.756,0.344-1.099,0.344-1.443s-0.344-1.099-0.344-1.099
		c-0.344-0.344-0.344-0.756-0.756-0.756c-0.412,0-0.756,0.344-0.756,0.344c-0.344,0.344-0.756,0.756-0.756,1.099
		s-0.344,0.756-0.344,1.099c-0.344,0.344-0.344,0.756-0.756,1.099c-0.344,0.344-0.756,0.756-1.099,0.756
		c-0.344,0.344-0.756,0.344-1.443,0.344c-1.099,0-1.787-0.344-2.199-0.756c-0.756-0.756-1.099-1.443-1.099-2.542
		s0.344-1.787,0.756-2.542C271.575,52.338,271.918,51.994,272.33,51.994z"/>
	<path id="_x33__1_" class="st1" d="M271.231,60.309h9.414c0.344,0,0.344,0,0.756,0.344c0,0,0,0.344,0,0.756v0.344
		c-0.344,0.344-0.344,0.344-0.756,0.344h-3.642v3.23h3.642c0.344,0,0.344,0,0.756,0.344c0,0,0,0.344,0,0.756s0,0.344,0,0.756
		c-0.344,0-0.344,0-0.756,0h-9.414h-0.344c0-0.344,0-0.756,0-0.756c0-0.344,0-0.756,0-0.756c0-0.344,0.344-0.344,0.344-0.344h4.329
		v-3.23h-4.329c0,0-0.344,0-0.344-0.344v-0.344c0-0.344,0-0.756,0-0.756C270.819,60.309,271.231,60.309,271.231,60.309z"/>
	<path id="_x34_" class="st1" d="M271.231,69.036h9.414c0.344,0,0.344,0,0.756,0.344c0,0,0,0.344,0,0.756s0,0.344,0,0.756
		c-0.344,0-0.344,0-0.756,0h-9.414h-0.344c0-0.344,0-0.344,0-0.756s0-0.756,0-0.756C270.819,69.036,271.231,69.036,271.231,69.036z"
		/>
	<path class="st1" d="M112.567,48.765h5.085V37.152h-5.085c-1.443,0-7.215-10.514-6.872-11.201c0.756-1.787,5.085,4.329,7.627,4.329
		l25.012,0.756l25.013-0.756c2.886,0,7.215-6.184,7.627-4.329c0.344,0.756-5.085,11.201-6.872,11.201h-4.329v11.613h5.085
		c1.787,0,2.886,1.443,2.886,3.23l0,0c0,1.443-1.099,2.886-2.886,2.886h-5.085v15.186c0,1.443-1.099,2.886-2.886,2.886l0,0
		c-1.787,0-2.886-1.443-2.886-2.886V54.88h-30.097v15.186c0,1.443-1.443,2.886-2.886,2.886l0,0c-1.787,0-3.23-1.443-3.23-2.886
		V54.88h-5.085c-1.443,0-2.886-1.443-2.886-2.886l0,0C109.612,50.208,111.055,48.765,112.567,48.765z M140.465,37.152v11.613h13.4
		V37.152H140.465z M136.067,48.765V37.152h-12.3v11.613H136.067z M109.612,18.324l28.586,0.756l28.586-0.756
		c3.23,0,7.971-6.184,8.727-4.329c0.344,0.756-7.971,11.201-11.957,11.201h-25.356h-23.501c-4.741,0-14.155-10.514-13.743-11.201
		C101.641,12.139,106.726,18.324,109.612,18.324z"/>
</g>
</svg>
