<?xml version="1.0" encoding="utf-8"?>
<!-- Generator: Adobe Illustrator 19.0.0, SVG Export Plug-In . SVG Version: 6.00 Build 0)  -->
<svg version="1.1" id="Layer_1" xmlns="http://www.w3.org/2000/svg" xmlns:xlink="http://www.w3.org/1999/xlink" x="0px" y="0px"
	 viewBox="-277 372 56 50" style="enable-background:new -277 372 56 50;" xml:space="preserve">
<style type="text/css">
	.st0{fill:none;}
	.st1{fill:#FFFFFF;}
</style>
<g>
	<rect x="-275.9" y="370.3" class="st0" width="53.8" height="53.4"/>
	<path class="st1" d="M-241.3,392c0.8,1.4,1.2,2.9,1.2,4.5c0,1.6-0.4,3.1-1.2,4.5c-0.8,1.4-1.9,2.5-3.3,3.3
		c-1.4,0.8-2.9,1.2-4.5,1.2c-0.9,0-1.7-0.1-2.6-0.4c0.5-0.7,0.8-1.4,0.9-1.9c0.1-0.3,0.3-1.1,0.6-2.5c0.2,0.3,0.5,0.6,0.8,0.8
		c0.4,0.2,0.8,0.3,1.3,0.3c1,0,1.8-0.3,2.5-0.8c0.8-0.5,1.3-1.3,1.7-2.2s0.6-2,0.6-3.1c0-0.9-0.3-1.7-0.7-2.5s-1.1-1.4-2-1.9
		s-1.8-0.8-2.9-0.8c-0.8,0-1.6,0.1-2.3,0.3c-0.7,0.2-1.3,0.5-1.8,0.9c-0.5,0.4-0.9,0.8-1.3,1.3c-0.3,0.5-0.6,1-0.8,1.5
		s-0.3,1-0.3,1.5c0,0.8,0.2,1.5,0.5,2.1c0.3,0.6,0.8,1,1.4,1.3c0.3,0.1,0.4,0,0.5-0.3c0,0,0-0.2,0.1-0.4c0-0.2,0.1-0.3,0.1-0.3
		c0-0.2,0-0.3-0.1-0.5c-0.4-0.5-0.6-1-0.6-1.8c0-1.2,0.4-2.2,1.2-3c0.8-0.8,1.9-1.3,3.2-1.3c1.2,0,2.1,0.3,2.8,1
		c0.7,0.6,1,1.5,1,2.5c0,1.3-0.3,2.5-0.8,3.4c-0.5,0.9-1.2,1.4-2.1,1.4c-0.5,0-0.8-0.2-1.1-0.5c-0.3-0.3-0.4-0.8-0.3-1.2
		c0-0.3,0.2-0.6,0.3-1.1s0.3-0.8,0.3-1.2c0.1-0.3,0.1-0.6,0.1-0.9c0-0.4-0.1-0.7-0.3-1c-0.2-0.3-0.5-0.4-0.9-0.4
		c-0.5,0-0.9,0.2-1.2,0.7c-0.3,0.5-0.5,1-0.5,1.7c0,0.6,0.1,1,0.3,1.4l-1.2,4.9c-0.1,0.5-0.2,1.2-0.2,2.1c-1.6-0.7-2.9-1.8-3.9-3.3
		s-1.5-3.1-1.5-4.9c0-1.6,0.4-3.1,1.2-4.5c0.8-1.4,1.9-2.5,3.3-3.3s2.9-1.2,4.5-1.2s3.1,0.4,4.5,1.2
		C-243.4,389.4-242.1,390.6-241.3,392z"/>
</g>
</svg>
